PathFileType	4	(X/Y/Z)	Walk3.trc
DataRate	CameraRate	NumFrames	NumMarkers	Units	OrigDataRate	OrigDataStartFrame	OrigNumFrames
200.000000	200.000000	7	68	mm	200.000000	899	1063
Frame#	Times		LFHD		LowerBodyModelVer		RFHD		RACR1		RCAR		LElbow		RWRU		RUA1		LACR1		LLFC		RASI		RFA1		LUA1		LTH3		LTB1		RTH2		LMT1		LMT5		RTH4		LTB4		LTH4		LTB3		LToe		RLFC		CLAV		STRN		LTH2		LLMAL		LASI		LTH1		PELOrigin		RTH3		LWRU		RElbow		RBack		LFA1		LPSI		RMT1		RMT5		LBHD		RPSI		LHJC		MidPelvis		OPelvis		RHJC		SACR		XPelvis		YPelvis		ZPelvis		RCAL		LCAR		C7		RToe		RLMAL		RBHD		RTB2		RTB3		RTH1		LWRR		RTB1		RTB4		RMMAL		LTB2		RElbowM		T10		RWRR		LMMAL		LCAL
			X1	Y1	Z1	X2	Y2	Z2	X3	Y3	Z3	X4	Y4	Z4	X5	Y5	Z5	X6	Y6	Z6	X7	Y7	Z7	X8	Y8	Z8	X9	Y9	Z9	X10	Y10	Z10	X11	Y11	Z11	X12	Y12	Z12	X13	Y13	Z13	X14	Y14	Z14	X15	Y15	Z15	X16	Y16	Z16	X17	Y17	Z17	X18	Y18	Z18	X19	Y19	Z19	X20	Y20	Z20	X21	Y21	Z21	X22	Y22	Z22	X23	Y23	Z23	X24	Y24	Z24	X25	Y25	Z25	X26	Y26	Z26	X27	Y27	Z27	X28	Y28	Z28	X29	Y29	Z29	X30	Y30	Z30	X31	Y31	Z31	X32	Y32	Z32	X33	Y33	Z33	X34	Y34	Z34	X35	Y35	Z35	X36	Y36	Z36	X37	Y37	Z37	X38	Y38	Z38	X39	Y39	Z39	X40	Y40	Z40	X41	Y41	Z41	X42	Y42	Z42	X43	Y43	Z43	X44	Y44	Z44	X45	Y45	Z45	X46	Y46	Z46	X47	Y47	Z47	X48	Y48	Z48	X49	Y49	Z49	X50	Y50	Z50	X51	Y51	Z51	X52	Y52	Z52	X53	Y53	Z53	X54	Y54	Z54	X55	Y55	Z55	X56	Y56	Z56	X57	Y57	Z57	X58	Y58	Z58	X59	Y59	Z59	X60	Y60	Z60	X61	Y61	Z61	X62	Y62	Z62	X63	Y63	Z63	X64	Y64	Z64	X65	Y65	Z65	X66	Y66	Z66	X67	Y67	Z67	X68	Y68	Z68

899	4.495	317.57	1596.4	5.9467	9	2014	4	322.24	1593	103.57	203.82	1376	226.36	260.99	785.83	358.72	173.39	1083	-255.61	214.04	833.39	376.05	179.74	1229.5	311.23	208.39	1376.5	-133.92	230.51	496.77	-180.08	310.1	965.72	196.22	220.09	943.02	353.23	206.68	1230.8	-215.47	257.22	568.78	-190.2	198.38	334.5	-104.09	286.64	638.6	191.93	36.18	61.568	-89.132	-5.9327	73.417	-161.93	232.02	638.89	217.3	129.9	281.91	-99.468	251.84	655.61	-204.72	68.125	222.48	-96.372	64.659	40.529	-104.5	223.32	460.33	181.03	279.48	1352	48.083	346.33	1239.2	63.31	306.41	661.8	-178.43	-45.749	190.89	-133.19	279.76	984.66	-147.36	250.06	739.4	-218.91	294.93	975.19	24.43	224.96	553.66	198.56	267.03	857.82	-308.5	143.03	1063.7	344.88	68.706	1310.6	149.94	258.47	976.97	-279.2	47.242	989.79	-53.882	331.63	33.853	68.342	323.11	27.977	161.16	167.15	1568	-16.264	48.339	986.85	80.707	199.38	875.06	-90.733	171.36	981.75	18.921	294.93	975.19	24.43	220.01	862.18	142.9	47.79	988.32	13.412	374.52	971.51	17.199	298.99	1055	28.469	301.96	970.8	104	144.19	27.888	113.79	315.85	821.57	-304.04	118.53	1419.8	59.674	378.21	31.167	74.104	200.58	65.99	155.68	153.25	1572.8	119.03	248.42	272.47	157.14	246.1	183.24	97.535	250.9	718.92	232.99	313.33	870.52	-250.93	270.03	353.05	90.77	258.06	268.15	94.152	213.3	72.44	68.707	110.76	301.44	-154.44	106.86	1048.9	261.46	72.51	1091.1	31.389	254.68	844.5	314.97	-11.827	175.07	-56.992	-96.198	192.48	-74.083
900	4.5	322.55	1596.6	6.301	9	2014	4	327.25	1593.2	103.93	209.12	1376.2	226.71	268.39	786.75	359.68	176.85	1083.3	-255.42	221.23	834.08	376.98	185.5	1229.6	311.61	213.2	1376.5	-133.72	238.68	497.7	-180.33	314.2	964.83	196.56	226.68	943.68	353.99	210.81	1230.8	-215.27	264.54	569.94	-190.71	208.7	335.17	-104.85	289.18	638.19	192.21	50.969	61.143	-90.803	8.5395	72.872	-163.44	234.55	638.84	217.59	141.11	281.8	-100.42	258.45	656.77	-205.13	79.867	221.73	-97.254	79.912	40.684	-106.39	224.88	460.26	181.13	284.42	1352.1	48.449	351.26	1238.9	63.332	313.06	663.38	-178.92	-33.925	188.86	-133.4	283.83	984.34	-147.38	255.9	740.63	-219.14	299.02	974.58	24.588	227.1	553.59	198.73	267.33	857.22	-309.37	149.08	1064	345.68	73.681	1311.1	150.61	260.49	976.37	-279.69	51.471	990.24	-53.409	331.65	33.816	68.337	323.08	27.964	161.17	172.11	1568.2	-15.841	52.793	987.43	81.177	202.88	874.91	-90.802	175.57	981.71	19.236	299.02	974.58	24.588	223.53	861.65	143.07	52.132	988.84	13.884	378.58	970.54	17.332	303.44	1054.4	28.722	306.04	970.07	104.15	144.18	27.925	113.74	315.78	820.46	-305.44	123.56	1420.2	59.999	378.33	31.135	74.188	200.64	66.025	155.6	158.27	1573.1	119.45	249.19	272.31	157.23	246.63	183.14	97.576	253.78	718.78	233.19	314.16	869.14	-252.06	271.18	352.86	90.924	258.9	268	94.25	213.37	72.416	68.639	121.09	301.57	-154.93	112.66	1048.9	262.4	77.128	1091.6	31.838	261.7	845.31	315.84	0.46019	173.09	-57.407	-84.588	188.77	-74.137
901	4.505	327.53	1596.7	6.6227	9	2014	4	332.26	1593.4	104.26	214.43	1376.4	227.02	275.77	787.67	360.65	180.28	1083.7	-255.26	228.41	834.77	377.92	191.22	1229.7	311.95	218.05	1376.6	-133.51	246.79	498.59	-180.53	318.25	963.9	196.92	233.25	944.34	354.72	214.94	1230.9	-215.09	271.74	571.07	-191.18	219.03	335.8	-105.57	291.72	637.76	192.51	66.016	60.608	-92.345	23.31	72.102	-164.85	237.07	638.76	217.86	152.39	281.59	-101.31	264.98	657.88	-205.51	91.756	220.82	-98.082	95.441	40.771	-108.11	226.46	460.19	181.21	289.35	1352.2	48.795	356.2	1238.6	63.264	319.63	664.9	-179.43	-21.863	186.53	-133.64	287.89	983.97	-147.43	261.67	741.8	-219.39	303.07	973.93	24.742	229.23	553.5	198.88	267.61	856.66	-310.26	155.12	1064.2	346.46	78.65	1311.5	151.27	262.48	975.79	-280.19	55.728	990.72	-52.993	331.67	33.777	68.332	323.06	27.952	161.17	177.07	1568.4	-15.444	57.22	988	81.587	206.32	874.73	-90.895	179.77	981.64	19.519	303.07	973.93	24.742	226.97	861.08	143.26	56.474	989.36	14.297	382.62	969.52	17.47	307.88	1053.7	28.965	310.08	969.29	104.3	144.17	27.966	113.69	315.66	819.38	-306.83	128.59	1420.5	60.313	378.44	31.103	74.271	200.71	66.063	155.53	163.29	1573.4	119.85	249.97	272.16	157.3	247.17	183.03	97.613	256.64	718.62	233.43	314.94	867.79	-253.19	272.37	352.65	91.075	259.77	267.84	94.344	213.45	72.393	68.572	131.52	301.53	-155.38	118.46	1048.9	263.29	81.732	1092	32.256	268.7	846.1	316.71	12.953	170.88	-57.82	-72.722	184.75	-74.262
902	4.51	332.52	1596.9	6.9134	9	2014	4	337.28	1593.6	104.55	219.75	1376.6	227.31	283.12	788.57	361.64	183.68	1084	-255.11	235.56	835.45	378.87	196.9	1229.9	312.25	222.94	1376.6	-133.29	254.84	499.43	-180.67	322.26	962.94	197.3	239.81	944.98	355.44	219.09	1231	-214.93	278.86	572.16	-191.59	229.4	336.38	-106.23	294.26	637.3	192.83	81.311	59.967	-93.773	38.358	71.125	-166.16	239.58	638.65	218.13	163.72	281.27	-102.12	271.43	658.94	-205.87	103.79	219.77	-98.843	111.23	40.789	-109.68	228.06	460.12	181.3	294.29	1352.3	49.12	361.13	1238.2	63.104	326.14	666.35	-179.93	-9.5675	183.92	-133.89	291.94	983.55	-147.51	267.38	742.9	-219.64	307.1	973.25	24.893	231.35	553.4	199.02	267.88	856.15	-311.17	161.14	1064.4	347.19	83.617	1311.9	151.89	264.44	975.24	-280.68	60.014	991.2	-52.635	331.68	33.738	68.326	323.04	27.943	161.18	182.03	1568.5	-15.072	61.621	988.56	81.935	209.73	874.51	-91.008	183.96	981.57	19.772	307.1	973.25	24.893	230.35	860.5	143.46	60.817	989.88	14.65	386.62	968.45	17.614	312.3	1053	29.2	314.09	968.49	104.44	144.16	28.011	113.64	315.51	818.34	-308.21	133.61	1420.7	60.618	378.55	31.072	74.352	200.78	66.104	155.47	168.31	1573.7	120.22	250.79	272	157.38	247.71	182.92	97.648	259.49	718.43	233.69	315.67	866.47	-254.32	273.61	352.43	91.226	260.66	267.68	94.437	213.52	72.375	68.507	142.04	301.32	-155.79	124.27	1048.9	264.14	86.325	1092.4	32.644	275.68	846.87	317.57	25.654	168.48	-58.228	-60.591	180.44	-74.444
903	4.515	337.5	1596.9	7.1745	9	2014	4	342.29	1593.8	104.81	225.08	1376.8	227.56	290.45	789.46	362.63	187.05	1084.4	-254.98	242.68	836.13	379.82	202.52	1229.9	312.53	227.87	1376.5	-133.05	262.84	500.23	-180.75	326.22	961.98	197.7	246.34	945.6	356.14	223.25	1231.1	-214.77	285.89	573.19	-191.94	239.77	336.92	-106.83	296.81	636.82	193.17	96.845	59.224	-95.102	53.667	69.959	-167.39	242.08	638.51	218.37	175.11	280.83	-102.84	277.81	659.93	-206.2	115.95	218.57	-99.53	127.26	40.741	-111.13	229.68	460.06	181.38	299.22	1352.3	49.421	366.06	1237.7	62.853	332.57	667.75	-180.44	2.9607	181.05	-134.15	296	983.11	-147.62	273.03	743.92	-219.91	311.11	972.55	25.042	233.48	553.28	199.13	268.13	855.69	-312.08	167.15	1064.6	347.9	88.586	1312.3	152.5	266.39	974.72	-281.17	64.327	991.7	-52.336	331.69	33.699	68.32	323.02	27.935	161.18	186.98	1568.6	-14.725	65.997	989.11	82.223	213.12	874.26	-91.141	188.14	981.48	19.993	311.11	972.55	25.042	233.67	859.9	143.67	65.162	990.41	14.944	390.61	967.36	17.766	316.71	1052.2	29.426	318.07	967.68	104.59	144.15	28.06	113.6	315.32	817.34	-309.57	138.62	1421	60.92	378.65	31.043	74.432	200.86	66.146	155.4	173.33	1573.9	120.56	251.63	271.85	157.45	248.27	182.81	97.681	262.32	718.22	233.97	316.34	865.2	-255.44	274.9	352.2	91.379	261.59	267.51	94.53	213.58	72.361	68.444	152.65	300.94	-156.16	130.08	1048.8	264.95	90.905	1092.8	33.001	282.64	847.61	318.43	38.567	165.87	-58.63	-48.184	175.86	-74.669
904	4.52	342.48	1596.9	7.4073	9	2014	4	347.31	1593.9	105.05	230.43	1376.9	227.78	297.75	790.34	363.63	190.38	1084.7	-254.86	249.78	836.8	380.78	208.1	1230	312.78	232.83	1376.5	-132.8	270.79	500.98	-180.78	330.15	961.03	198.12	252.85	946.21	356.83	227.42	1231.2	-214.62	292.85	574.17	-192.23	250.17	337.41	-107.37	299.36	636.31	193.53	112.61	58.387	-96.349	69.22	68.623	-168.54	244.57	638.34	218.6	186.53	280.29	-103.46	284.12	660.85	-206.49	128.24	217.23	-100.14	143.52	40.632	-112.48	231.34	459.99	181.46	304.16	1352.2	49.695	370.98	1237.2	62.51	338.92	669.07	-180.93	15.721	177.91	-134.42	300.07	982.65	-147.74	278.61	744.85	-220.19	315.11	971.84	25.188	235.62	553.16	199.23	268.36	855.28	-313	173.14	1064.8	348.57	93.561	1312.7	153.08	268.31	974.22	-281.66	68.666	992.2	-52.096	331.71	33.66	68.315	323	27.928	161.17	191.92	1568.7	-14.403	70.349	989.64	82.451	216.5	873.99	-91.292	192.31	981.38	20.183	315.11	971.84	25.188	236.96	859.29	143.89	69.507	990.92	15.178	394.58	966.25	17.926	321.12	1051.5	29.644	322.03	966.87	104.73	144.15	28.113	113.56	315.09	816.38	-310.9	143.64	1421.2	61.222	378.75	31.015	74.51	200.93	66.189	155.34	178.35	1574.1	120.89	252.5	271.69	157.52	248.84	182.7	97.712	265.15	717.98	234.27	316.96	863.97	-256.56	276.24	351.95	91.534	262.54	267.33	94.623	213.65	72.354	68.384	163.36	300.39	-156.48	135.89	1048.7	265.71	95.473	1093.2	33.327	289.58	848.34	319.29	51.695	163.07	-59.025	-35.492	171.03	-74.926
905	4.525	347.45	1596.9	7.6128	9	2014	4	352.32	1593.9	105.26	235.8	1377	227.97	305.02	791.21	364.64	193.67	1085.1	-254.75	256.85	837.46	381.73	213.62	1230.1	313.01	237.82	1376.4	-132.55	278.67	501.7	-180.74	334.05	960.09	198.55	259.32	946.81	357.51	231.6	1231.3	-214.48	299.75	575.08	-192.44	260.56	337.85	-107.84	301.93	635.79	193.91	128.6	57.466	-97.525	85.007	67.138	-169.63	247.06	638.16	218.82	197.98	279.65	-103.98	290.37	661.7	-206.73	140.66	215.75	-100.65	160	40.471	-113.75	233.03	459.93	181.55	309.1	1352.1	49.938	375.9	1236.6	62.077	345.21	670.34	-181.41	28.715	174.54	-134.7	304.16	982.16	-147.89	284.12	745.68	-220.48	319.1	971.13	25.332	237.76	553.03	199.31	268.58	854.92	-313.92	179.1	1065	349.21	98.545	1313.1	153.65	270.2	973.76	-282.15	73.028	992.71	-51.915	331.71	33.622	68.311	322.99	27.923	161.17	196.87	1568.7	-14.103	74.675	990.15	82.62	219.9	873.71	-91.459	196.48	981.28	20.342	319.1	971.13	25.332	240.23	858.7	144.12	73.851	991.43	15.353	398.55	965.15	18.094	325.51	1050.7	29.852	325.97	966.06	104.88	144.15	28.17	113.52	314.83	815.46	-312.21	148.65	1421.4	61.526	378.85	30.989	74.587	201.02	66.234	155.28	183.38	1574.3	121.19	253.4	271.54	157.59	249.41	182.6	97.741	267.97	717.73	234.6	317.55	862.79	-257.67	277.61	351.7	91.69	263.51	267.15	94.716	213.72	72.353	68.328	174.17	299.67	-156.75	141.7	1048.6	266.43	100.03	1093.5	33.622	296.5	849.04	320.14	65.039	160.09	-59.414	-22.506	165.96	-75.207
